  0
SECTION
  2
HEADER
  9
$ACADVER
  1
AC1009
  9
$INSBASE
 10
0.0
 20
0.0
 30
0.0
  9
$EXTMIN
 10
0.0
 20
0.0
 30
0.0
  9
$EXTMAX
 10
0.0
 20
0.0
 30
0.0
  0
ENDSEC
  0
SECTION
  2
TABLES
  0
TABLE
  2
VPORT
 70
0
  0
ENDTAB
  0
TABLE
  2
LTYPE
 70
1
  0
LTYPE
  2
CONTINUOUS
 70
0
  3
Solid line
 72
65
 73
0
 40
0.0
  0
ENDTAB
  0
TABLE
  2
LAYER
 70
1
  0
LAYER
  2
0
 70
64
 62
7
  6
continuous
  0
ENDTAB
  0
TABLE
  2
STYLE
 70
1
  0
STYLE
  2
STANDARD
 70
0
 40
0
 41
1.0
 50
0.0
 71
0
 42
1
 3
ARIAL.TTF
 4

  0
ENDTAB
  0
TABLE
  2
VIEW
 70
0
  0
ENDTAB
  0
ENDSEC
  0
SECTION
  2
BLOCKS
  0
BLOCK
  8
0
  2
BODY
 70
0
 10
0.0
 20
0.0
 30
0.0
  3
BODY
  0
LINE
  8
0
 62
0
 10
7.8
 20
-2.08427719528e-13
 30
0.0
 11
7.8
 21
3.5
 31
0.0
  0
POLYLINE
  8
0
 62
0
 70
0
 66
1
 10
0.0
 20
0.0
 30
0.0
  0
VERTEX
  8
0
 10
7.8
 20
3.5
 30
0.0
  0
VERTEX
  8
0
 10
7.8
 20
5.15
 30
0.0
  0
SEQEND
  8
0
  0
LINE
  8
0
 62
0
 10
8.0
 20
-2.53502774328e-13
 30
0.0
 11
8.0
 21
3.5
 31
0.0
  0
POLYLINE
  8
0
 62
0
 70
0
 66
1
 10
0.0
 20
0.0
 30
0.0
  0
VERTEX
  8
0
 10
2.0
 20
5.75
 30
0.0
  0
VERTEX
  8
0
 10
2.0
 20
3.55
 30
0.0
  0
SEQEND
  8
0
  0
LINE
  8
0
 62
0
 10
2.0
 20
3.55
 30
0.0
 11
2.0
 21
-3.55
 31
0.0
  0
POLYLINE
  8
0
 62
0
 70
0
 66
1
 10
0.0
 20
0.0
 30
0.0
  0
VERTEX
  8
0
 10
2.0
 20
-3.55
 30
0.0
  0
VERTEX
  8
0
 10
2.0
 20
-5.75
 30
0.0
  0
SEQEND
  8
0
  0
LINE
  8
0
 62
0
 10
2.0
 20
-1.3207619229
 30
0.0
 11
7.8
 21
-1.32076192291
 31
0.0
  0
POLYLINE
  8
0
 62
0
 70
0
 66
1
 10
0.0
 20
0.0
 30
0.0
  0
VERTEX
  8
0
 10
7.8
 20
-1.32076192291
 30
0.0
  0
VERTEX
  8
0
 10
7.8
 20
-2.08648087001e-13
 30
0.0
  0
SEQEND
  8
0
  0
POLYLINE
  8
0
 62
0
 70
0
 66
1
 10
0.0
 20
0.0
 30
0.0
  0
VERTEX
  8
0
 10
8.0
 20
3.5
 30
0.0
  0
VERTEX
  8
0
 10
8.0
 20
4.95
 30
0.0
  0
SEQEND
  8
0
  0
POLYLINE
  8
0
 62
0
 70
0
 66
1
 10
0.0
 20
0.0
 30
0.0
  0
VERTEX
  8
0
 10
7.8
 20
-1.32076192291
 30
0.0
  0
VERTEX
  8
0
 10
8.0
 20
-1.21655471394
 30
0.0
  0
SEQEND
  8
0
  0
POLYLINE
  8
0
 62
0
 70
0
 66
1
 10
0.0
 20
0.0
 30
0.0
  0
VERTEX
  8
0
 10
8.0
 20
-1.21655471394
 30
0.0
  0
VERTEX
  8
0
 10
8.0
 20
-2.74394396094e-13
 30
0.0
  0
SEQEND
  8
0
  0
POLYLINE
  8
0
 62
0
 70
0
 66
1
 10
0.0
 20
0.0
 30
0.0
  0
VERTEX
  8
0
 10
8.0
 20
-4.95
 30
0.0
  0
VERTEX
  8
0
 10
8.0
 20
-2.28344528606
 30
0.0
  0
SEQEND
  8
0
  0
LINE
  8
0
 62
0
 10
8.0
 20
-1.21655471394
 30
0.0
 11
8.0
 21
-2.28344528606
 31
0.0
  0
LINE
  8
0
 62
0
 10
7.54507567535e-13
 20
5.55748598999
 30
0.0
 11
-2.0
 21
5.55748598999
 31
0.0
  0
POLYLINE
  8
0
 62
0
 70
0
 66
1
 10
0.0
 20
0.0
 30
0.0
  0
VERTEX
  8
0
 10
-2.0
 20
5.55748598999
 30
0.0
  0
VERTEX
  8
0
 10
-2.0
 20
3.55
 30
0.0
  0
SEQEND
  8
0
  0
LINE
  8
0
 62
0
 10
-2.0
 20
3.55
 30
0.0
 11
-2.0
 21
-3.55
 31
0.0
  0
POLYLINE
  8
0
 62
0
 70
0
 66
1
 10
0.0
 20
0.0
 30
0.0
  0
VERTEX
  8
0
 10
-2.0
 20
-3.55
 30
0.0
  0
VERTEX
  8
0
 10
-2.0
 20
-5.55748598999
 30
0.0
  0
SEQEND
  8
0
  0
LINE
  8
0
 62
0
 10
7.54951656745e-13
 20
-5.55748598999
 30
0.0
 11
-2.0
 21
-5.55748598999
 31
0.0
  0
LINE
  8
0
 62
0
 10
7.8
 20
-1.32076192291
 30
0.0
 11
7.8
 21
-2.1792380771
 31
0.0
  0
LINE
  8
0
 62
0
 10
2.0
 20
-2.17923807709
 30
0.0
 11
7.8
 21
-2.1792380771
 31
0.0
  0
POLYLINE
  8
0
 62
0
 70
0
 66
1
 10
0.0
 20
0.0
 30
0.0
  0
VERTEX
  8
0
 10
7.8
 20
-5.15
 30
0.0
  0
VERTEX
  8
0
 10
7.8
 20
-2.1792380771
 30
0.0
  0
SEQEND
  8
0
  0
POLYLINE
  8
0
 62
0
 70
0
 66
1
 10
0.0
 20
0.0
 30
0.0
  0
VERTEX
  8
0
 10
7.8
 20
-2.1792380771
 30
0.0
  0
VERTEX
  8
0
 10
8.0
 20
-2.28344528606
 30
0.0
  0
SEQEND
  8
0
  0
LINE
  8
0
 62
0
 10
7.53391557548e-13
 20
7.25
 30
0.0
 11
7.53391557548e-13
 21
5.55748598999
 31
0.0
  0
LINE
  8
0
 62
0
 10
-2.0
 20
5.55748598999
 30
0.0
 11
-2.0
 21
7.25
 31
0.0
  0
ARC
  8
0
 62
0
 10
-0.399999999999
 20
7.25
 30
0.0
 40
0.4
 50
0.0
 51
90.0
  0
ARC
  8
0
 62
0
 10
-1.6
 20
7.25
 30
0.0
 40
0.4
 50
90.0
 51
-180.0
  0
LINE
  8
0
 62
0
 10
-1.6
 20
7.65
 30
0.0
 11
-0.399999999999
 21
7.65
 31
0.0
  0
CIRCLE
  8
0
 62
0
 10
-0.999999999999
 20
6.5
 30
0.0
 40
0.75
  0
ARC
  8
0
 62
0
 10
-1.6
 20
-7.25
 30
0.0
 40
0.4
 50
-180.0
 51
-90.0
  0
LINE
  8
0
 62
0
 10
-2.0
 20
-7.25
 30
0.0
 11
-2.0
 21
-5.55748598999
 31
0.0
  0
LINE
  8
0
 62
0
 10
-0.399999999999
 20
-7.65
 30
0.0
 11
-1.6
 21
-7.65
 31
0.0
  0
ARC
  8
0
 62
0
 10
-0.399999999999
 20
-7.25
 30
0.0
 40
0.4
 50
-90.0
 51
0.0
  0
LINE
  8
0
 62
0
 10
7.5339155755e-13
 20
-5.55748598999
 30
0.0
 11
7.5339155755e-13
 21
-7.25
 31
0.0
  0
CIRCLE
  8
0
 62
0
 10
-1.0
 20
-6.5
 30
0.0
 40
0.75
  0
CIRCLE
  8
0
 62
0
 10
-0.999999999999
 20
6.5
 30
0.0
 40
0.5
  0
CIRCLE
  8
0
 62
0
 10
-1.0
 20
-6.5
 30
0.0
 40
0.5
  0
LINE
  8
0
 62
0
 10
2.0
 20
3.5
 30
0.0
 11
7.8
 21
3.5
 31
0.0
  0
LINE
  8
0
 62
0
 10
2.0
 20
4.45948276768e-13
 30
0.0
 11
7.8
 21
-2.07640017829e-13
 31
0.0
  0
LINE
  8
0
 62
0
 10
7.8
 20
-2.08864580491e-13
 30
0.0
 11
8.0
 21
-2.7455766053e-13
 31
0.0
  0
LINE
  8
0
 62
0
 10
7.8
 20
3.5
 30
0.0
 11
8.0
 21
3.5
 31
0.0
  0
LINE
  8
0
 62
0
 10
-2.0
 20
3.55
 30
0.0
 11
2.0
 21
3.55
 31
0.0
  0
LINE
  8
0
 62
0
 10
-2.0
 20
-3.55
 30
0.0
 11
2.0
 21
-3.55
 31
0.0
  0
LINE
  8
0
 62
0
 10
7.8
 20
5.15
 30
0.0
 11
2.0
 21
5.15
 31
0.0
  0
LINE
  8
0
 62
0
 10
8.0
 20
4.95
 30
0.0
 11
7.8
 21
5.15
 31
0.0
  0
LINE
  8
0
 62
0
 10
2.0
 20
5.75
 30
0.0
 11
1.00230934663e-12
 21
5.75
 31
0.0
  0
LINE
  8
0
 62
0
 10
2.0
 20
-5.75
 30
0.0
 11
5.06261699229e-13
 21
-5.75
 31
0.0
  0
LINE
  8
0
 62
0
 10
7.8
 20
-5.15
 30
0.0
 11
2.0
 21
-5.15
 31
0.0
  0
LINE
  8
0
 62
0
 10
8.0
 20
-4.95
 30
0.0
 11
7.8
 21
-5.15
 31
0.0
  0
ENDBLK
  0
BLOCK
  8
0
  2
BODY003001
 70
0
 10
0.0
 20
0.0
 30
0.0
  3
BODY003001
  0
ARC
  8
0
 62
0
 10
-6.0
 20
3.5
 30
0.0
 40
0.95
 50
90.0
 51
-90.0
  0
POLYLINE
  8
0
 62
0
 70
0
 66
1
 10
0.0
 20
0.0
 30
0.0
  0
VERTEX
  8
0
 10
-4.0
 20
4.45
 30
0.0
  0
VERTEX
  8
0
 10
-6.0
 20
4.45
 30
0.0
  0
SEQEND
  8
0
  0
POLYLINE
  8
0
 62
0
 70
0
 66
1
 10
0.0
 20
0.0
 30
0.0
  0
VERTEX
  8
0
 10
-4.0
 20
2.25
 30
0.0
  0
VERTEX
  8
0
 10
-4.0
 20
4.75
 30
0.0
  0
SEQEND
  8
0
  0
POLYLINE
  8
0
 62
0
 70
0
 66
1
 10
0.0
 20
0.0
 30
0.0
  0
VERTEX
  8
0
 10
-2.0
 20
4.75
 30
0.0
  0
VERTEX
  8
0
 10
-2.0
 20
2.25
 30
0.0
  0
SEQEND
  8
0
  0
LINE
  8
0
 62
0
 10
-2.0
 20
4.75
 30
0.0
 11
-4.0
 21
4.75
 31
0.0
  0
LINE
  8
0
 62
0
 10
-2.0
 20
4.75
 30
0.0
 11
7.8
 21
4.75
 31
0.0
  0
POLYLINE
  8
0
 62
0
 70
0
 66
1
 10
0.0
 20
0.0
 30
0.0
  0
VERTEX
  8
0
 10
7.8
 20
4.75
 30
0.0
  0
VERTEX
  8
0
 10
7.8
 20
2.25
 30
0.0
  0
SEQEND
  8
0
  0
POLYLINE
  8
0
 62
0
 70
0
 66
1
 10
0.0
 20
0.0
 30
0.0
  0
VERTEX
  8
0
 10
-4.0
 20
2.55
 30
0.0
  0
VERTEX
  8
0
 10
-6.0
 20
2.55
 30
0.0
  0
SEQEND
  8
0
  0
LINE
  8
0
 62
0
 10
-4.0
 20
2.25
 30
0.0
 11
-2.0
 21
2.25
 31
0.0
  0
LINE
  8
0
 62
0
 10
7.8
 20
2.25
 30
0.0
 11
-2.0
 21
2.25
 31
0.0
  0
ENDBLK
  0
BLOCK
  8
0
  2
BODY003002
 70
0
 10
0.0
 20
0.0
 30
0.0
  3
BODY003002
  0
ARC
  8
0
 62
0
 10
-6.0
 20
-3.5
 30
0.0
 40
0.95
 50
90.0
 51
-90.0
  0
POLYLINE
  8
0
 62
0
 70
0
 66
1
 10
0.0
 20
0.0
 30
0.0
  0
VERTEX
  8
0
 10
-4.0
 20
-2.55
 30
0.0
  0
VERTEX
  8
0
 10
-6.0
 20
-2.55
 30
0.0
  0
SEQEND
  8
0
  0
POLYLINE
  8
0
 62
0
 70
0
 66
1
 10
0.0
 20
0.0
 30
0.0
  0
VERTEX
  8
0
 10
-4.0
 20
-4.75
 30
0.0
  0
VERTEX
  8
0
 10
-4.0
 20
-2.25
 30
0.0
  0
SEQEND
  8
0
  0
POLYLINE
  8
0
 62
0
 70
0
 66
1
 10
0.0
 20
0.0
 30
0.0
  0
VERTEX
  8
0
 10
-2.0
 20
-2.25
 30
0.0
  0
VERTEX
  8
0
 10
-2.0
 20
-4.75
 30
0.0
  0
SEQEND
  8
0
  0
LINE
  8
0
 62
0
 10
-2.0
 20
-2.25
 30
0.0
 11
-4.0
 21
-2.25
 31
0.0
  0
LINE
  8
0
 62
0
 10
-2.0
 20
-2.25
 30
0.0
 11
7.8
 21
-2.25
 31
0.0
  0
POLYLINE
  8
0
 62
0
 70
0
 66
1
 10
0.0
 20
0.0
 30
0.0
  0
VERTEX
  8
0
 10
7.8
 20
-2.25
 30
0.0
  0
VERTEX
  8
0
 10
7.8
 20
-4.75
 30
0.0
  0
SEQEND
  8
0
  0
POLYLINE
  8
0
 62
0
 70
0
 66
1
 10
0.0
 20
0.0
 30
0.0
  0
VERTEX
  8
0
 10
-4.0
 20
-4.45
 30
0.0
  0
VERTEX
  8
0
 10
-6.0
 20
-4.45
 30
0.0
  0
SEQEND
  8
0
  0
LINE
  8
0
 62
0
 10
-4.0
 20
-4.75
 30
0.0
 11
-2.0
 21
-4.75
 31
0.0
  0
LINE
  8
0
 62
0
 10
7.8
 20
-4.75
 30
0.0
 11
-2.0
 21
-4.75
 31
0.0
  0
ENDBLK
  0
BLOCK
  8
0
  2
BODY001
 70
0
 10
0.0
 20
0.0
 30
0.0
  3
BODY001
  0
CIRCLE
  8
0
 62
0
 10
-1.0
 20
6.5
 30
0.0
 40
0.75
  0
ENDBLK
  0
BLOCK
  8
0
  2
BODY002
 70
0
 10
0.0
 20
0.0
 30
0.0
  3
BODY002
  0
CIRCLE
  8
0
 62
0
 10
-1.0
 20
-6.5
 30
0.0
 40
0.75
  0
ENDBLK
  0
BLOCK
  8
0
  2
BODY003
 70
0
 10
0.0
 20
0.0
 30
0.0
  3
BODY003
  0
ARC
  8
0
 62
0
 10
-6.0
 20
1.44328993201e-15
 30
0.0
 40
0.95
 50
90.0
 51
-90.0
  0
POLYLINE
  8
0
 62
0
 70
0
 66
1
 10
0.0
 20
0.0
 30
0.0
  0
VERTEX
  8
0
 10
-4.0
 20
0.95
 30
0.0
  0
VERTEX
  8
0
 10
-6.0
 20
0.95
 30
0.0
  0
SEQEND
  8
0
  0
POLYLINE
  8
0
 62
0
 70
0
 66
1
 10
0.0
 20
0.0
 30
0.0
  0
VERTEX
  8
0
 10
-4.0
 20
-1.25
 30
0.0
  0
VERTEX
  8
0
 10
-4.0
 20
1.25
 30
0.0
  0
SEQEND
  8
0
  0
POLYLINE
  8
0
 62
0
 70
0
 66
1
 10
0.0
 20
0.0
 30
0.0
  0
VERTEX
  8
0
 10
-2.0
 20
1.25
 30
0.0
  0
VERTEX
  8
0
 10
-2.0
 20
-1.25
 30
0.0
  0
SEQEND
  8
0
  0
LINE
  8
0
 62
0
 10
-2.0
 20
1.25
 30
0.0
 11
-4.0
 21
1.25
 31
0.0
  0
LINE
  8
0
 62
0
 10
-2.0
 20
1.25
 30
0.0
 11
7.8
 21
1.25
 31
0.0
  0
POLYLINE
  8
0
 62
0
 70
0
 66
1
 10
0.0
 20
0.0
 30
0.0
  0
VERTEX
  8
0
 10
7.8
 20
1.25
 30
0.0
  0
VERTEX
  8
0
 10
7.8
 20
-1.25
 30
0.0
  0
SEQEND
  8
0
  0
POLYLINE
  8
0
 62
0
 70
0
 66
1
 10
0.0
 20
0.0
 30
0.0
  0
VERTEX
  8
0
 10
-4.0
 20
-0.95
 30
0.0
  0
VERTEX
  8
0
 10
-6.0
 20
-0.95
 30
0.0
  0
SEQEND
  8
0
  0
LINE
  8
0
 62
0
 10
-4.0
 20
-1.25
 30
0.0
 11
-2.0
 21
-1.25
 31
0.0
  0
LINE
  8
0
 62
0
 10
7.8
 20
-1.25
 30
0.0
 11
-2.0
 21
-1.25
 31
0.0
  0
ENDBLK
  0
ENDSEC
  0
SECTION
  2
ENTITIES
  0
INSERT
  2
BODY
  8
0
 62
0
 10
0.0
 20
0.0
 30
0.0
  0
INSERT
  2
BODY003001
  8
0
 62
0
 10
0.0
 20
0.0
 30
0.0
  0
INSERT
  2
BODY003002
  8
0
 62
0
 10
0.0
 20
0.0
 30
0.0
  0
INSERT
  2
BODY001
  8
0
 62
0
 10
0.0
 20
0.0
 30
0.0
  0
INSERT
  2
BODY002
  8
0
 62
0
 10
0.0
 20
0.0
 30
0.0
  0
INSERT
  2
BODY003
  8
0
 62
0
 10
0.0
 20
0.0
 30
0.0
  0
ENDSEC
  0
EOF
